<svg width="243" height="410" viewBox="0 0 243 410" fill="none" xmlns="http://www.w3.org/2000/svg">
<g opacity="0.7">
<path d="M67.921 70.3624C96.5551 69.672 120.339 92.2954 121.03 120.889C121.239 129.533 119.458 143.918 116.087 159.785C127.396 149.379 138.154 141.017 145.348 136.92H145.349L145.933 136.592C170.726 122.895 202.025 131.613 216.097 156.267C230.28 181.115 221.606 212.75 196.722 226.912C189.413 231.072 176.434 236.151 161.403 240.618C176.569 245.326 189.669 250.648 196.994 254.951C221.679 269.452 229.931 301.194 215.408 325.855C200.886 350.515 169.097 358.742 144.401 344.241C137.007 339.9 125.853 330.93 114.253 319.847C117.775 335.656 119.696 349.997 119.575 358.633C119.18 387.015 95.9832 409.738 67.6525 409.692L66.9825 409.687C38.4638 409.29 15.6491 385.972 15.8517 357.551H15.838L15.8429 357.17L15.8566 356.491C16.0821 347.867 18.3493 334.07 22.1573 318.916C10.8701 329.963 0.0282669 338.911 -7.20985 343.298C-31.6949 358.138 -63.6002 350.355 -78.4628 325.905C-93.325 301.456 -85.5299 269.598 -61.0448 254.757C-53.4643 250.162 -39.6157 244.372 -23.6845 239.298C-38.5504 234.909 -51.4656 229.906 -58.9647 225.758L-59.5575 225.425C-84.4299 211.263 -93.1037 179.627 -78.9208 154.779C-64.7379 129.932 -33.0563 121.271 -8.17274 135.433C-0.398445 139.857 11.541 149.263 23.837 160.851C19.8827 145.615 17.5254 131.814 17.3214 123.381C16.6301 94.7879 39.2872 71.0532 67.921 70.3624Z" fill="#FF7500" fill-opacity="0.5"/>
<path d="M74.0943 203.966C72.1925 182.571 77.7077 127.895 114.983 80.3504C152.258 32.8058 208.804 18.3839 232.418 17.1161" stroke="white" stroke-width="6" stroke-linecap="round" stroke-linejoin="round"/>
<circle cx="225.911" cy="16.1652" r="16.1652" fill="#06D6A0"/>
<path d="M73.7683 201.589C74.2438 186.85 82.3263 150.716 110.853 124.091C146.512 90.8102 184.547 80.3504 209.27 77.9731" stroke="white" stroke-width="6" stroke-linecap="round" stroke-linejoin="round"/>
<circle cx="209.746" cy="77.9732" r="16.1652" fill="#06D6A0"/>
</g>
</svg>
