<svg width="224" height="261" viewBox="0 0 224 261" fill="none" xmlns="http://www.w3.org/2000/svg">
<path d="M110.98 0.0113119C131.515 -0.483127 148.172 15.2901 148.668 35.7672C148.826 42.3047 147.424 53.4714 144.781 65.6402C153.097 57.994 161.024 51.8395 166.281 48.8414L167.128 48.3736C184.974 38.8127 207.41 45.6521 217.487 63.3297C227.735 81.3065 220.958 103.346 203 113.579C197.848 116.514 188.794 120.108 178.273 123.316C189.611 126.79 199.46 130.768 204.917 133.972C222.819 144.483 228.978 167.3 218.441 185.181C207.907 203.058 184.191 209.217 166.277 198.705C157.358 193.47 141.087 178.968 128.355 163.573C121.988 155.873 116.487 147.927 113.23 140.784C112.06 138.217 111.175 135.737 110.645 133.401C110.187 134.818 109.62 136.276 108.956 137.765C105.782 144.883 100.373 152.823 94.0986 160.532C81.5533 175.945 65.4727 190.521 56.663 195.834C38.9677 206.504 16.1952 200.851 5.45503 183.273C-5.28873 165.689 0.323922 143.688 18.0156 133.019C23.3238 129.818 32.823 125.746 43.7939 122.094C34.211 119.13 25.9211 115.864 20.8085 113.106L19.9355 112.623C1.98543 102.39 -4.80021 80.3505 5.44819 62.3736C15.6864 44.4153 38.6764 37.6422 56.6542 47.8853C62.1594 51.0221 70.5913 57.6225 79.333 65.7721C76.2638 54.3657 74.4192 43.9567 74.2675 37.6988C73.7715 17.213 90.455 0.505751 110.98 0.0113119Z" fill="#FF7500"/>
<path d="M110.99 75.9502C139.516 75.9505 162.64 129.683 162.64 158.209C162.64 169.952 158.72 180.777 152.119 189.453V232.816H165.51C172.488 232.816 178.62 236.427 181.771 242.382C184.883 248.262 184.194 258.657 178.901 259.599C175.241 260.249 149.679 260.001 134.241 259.785C127.7 259.694 122.467 254.359 122.467 247.817V208.579C118.776 209.417 114.935 209.86 110.99 209.86C106.703 209.86 102.538 209.337 98.5553 208.353V247.817C98.5553 254.359 93.3225 259.694 86.7819 259.785C71.3438 260.001 45.7815 260.249 42.1217 259.599C36.8285 258.657 36.1399 248.262 39.2516 242.382C42.4032 236.427 48.5349 232.816 55.5123 232.816H68.9039V188.158C62.8818 179.711 59.3385 169.374 59.3385 158.209C59.3387 129.683 82.4639 75.9502 110.99 75.9502Z" fill="#FF7500"/>
<ellipse cx="97.1213" cy="109.906" rx="11.9563" ry="15.7823" fill="white"/>
<ellipse cx="100.946" cy="112.297" rx="7.17377" ry="9.56502" fill="#161820"/>
<path d="M77.6314 103.671C80.2871 104.637 83.1073 105.072 85.9308 104.948C88.7544 104.825 91.526 104.147 94.0874 102.952C96.6488 101.758 98.9499 100.071 100.859 97.987C102.769 95.9033 104.249 93.4639 105.215 90.8081L84.9921 83.4474L77.6314 103.671Z" fill="#FF7500"/>
<ellipse cx="125.816" cy="109.905" rx="11.9563" ry="15.7823" fill="white"/>
<ellipse cx="129.642" cy="112.296" rx="7.17377" ry="9.56502" fill="#161820"/>
<path d="M148.534 105.982C145.757 106.992 142.809 107.446 139.857 107.317C136.905 107.188 134.007 106.479 131.33 105.23C128.652 103.982 126.246 102.218 124.25 100.039C122.254 97.8609 120.706 95.3105 119.695 92.534L140.839 84.8385L148.534 105.982Z" fill="#FF7500"/>
<path d="M97.5771 84.5587C79.4041 76.4281 62.187 81.2107 53.1003 89.3409C25.8143 113.755 25.3617 180.209 22.4922 200.295" stroke="white" stroke-width="6" stroke-linecap="round" stroke-linejoin="round"/>
<path d="M8.62207 201.252C8.62207 207.592 13.761 212.73 20.1001 212.73C26.4392 212.73 31.5781 207.592 31.5781 201.252C31.5781 194.913 26.4392 189.774 20.1001 189.774C13.761 189.774 8.62207 194.913 8.62207 201.252Z" fill="#06D6A0"/>
<path d="M124.381 86.4709C141.098 74.9928 171.706 75.471 184.14 95.5575C198.586 118.892 196.575 174.469 194.184 186.425" stroke="white" stroke-width="6" stroke-linecap="round" stroke-linejoin="round"/>
<circle cx="195.14" cy="189.774" r="11.478" fill="#06D6A0"/>
</svg>
