<svg width="252" height="329" viewBox="0 0 252 329" fill="none" xmlns="http://www.w3.org/2000/svg">
<g filter="url(#filter0_d_141_31)">
<path d="M124.398 56.7324C146.686 56.1956 165.199 73.7852 165.737 96.0176C165.901 102.783 164.494 114.069 161.836 126.496C170.504 118.551 178.726 112.177 184.252 109.028L185.166 108.523C204.43 98.1934 228.546 105.039 239.436 124.123C250.498 143.511 243.732 168.195 224.323 179.245C218.735 182.427 208.897 186.296 197.472 189.728C209.499 193.433 219.911 197.642 225.708 201.041C245.048 212.381 251.514 237.206 240.136 256.492C228.757 275.778 203.852 282.212 184.504 270.872C178.702 267.472 169.949 260.443 160.853 251.761C163.435 263.596 164.837 274.269 164.746 280.776C164.44 302.668 146.664 320.227 124.849 320.467L123.808 320.466C101.637 320.158 83.8966 302.076 84.0088 280.019H83.9951L84 279.639C84.0952 272.818 85.9604 261.47 89.1377 249.041C80.0805 257.921 71.3177 265.141 65.5166 268.634C46.4009 280.143 21.4909 274.108 9.88577 255.144C-1.72022 236.177 4.36774 211.464 23.4854 199.953C29.1795 196.525 39.4015 192.239 51.2393 188.418C40.2555 185.065 30.8402 181.332 25.4199 178.246H25.419C6.01805 167.196 -0.747299 142.512 10.3155 123.124C21.3786 103.737 46.0911 96.98 65.501 108.029C71.5173 111.454 80.7283 118.705 90.2324 127.644C87.0658 115.582 85.1731 104.617 85.0117 97.9561C84.4736 75.7236 102.111 57.2694 124.398 56.7324Z" fill="#FF7500"/>
</g>
<ellipse cx="109.5" cy="185.5" rx="12.5" ry="16.5" fill="white"/>
<ellipse cx="109.5" cy="188" rx="7.5" ry="10" fill="#161820"/>
<ellipse cx="139.5" cy="185.5" rx="12.5" ry="16.5" fill="white"/>
<ellipse cx="139.5" cy="188" rx="7.5" ry="10" fill="#161820"/>
<path d="M117.847 158.738C116.367 142.087 120.66 99.535 149.669 62.5331C178.679 25.5313 222.686 14.3074 241.064 13.3207" stroke="white" stroke-width="6" stroke-linecap="round" stroke-linejoin="round"/>
<circle cx="236.001" cy="12.5806" r="12.5806" fill="#06D6A0"/>
<path d="M133.594 158.888C133.964 147.417 140.254 119.296 162.455 98.5748C190.207 72.6735 219.808 64.5331 239.049 62.683" stroke="white" stroke-width="6" stroke-linecap="round" stroke-linejoin="round"/>
<circle cx="239.419" cy="62.683" r="12.5806" fill="#06D6A0"/>
<defs>
<filter id="filter0_d_141_31" x="0" y="56.7205" width="249.75" height="271.746" filterUnits="userSpaceOnUse" color-interpolation-filters="sRGB">
<feFlood flood-opacity="0" result="BackgroundImageFix"/>
<feColorMatrix in="SourceAlpha" type="matrix" values="0 0 0 0 0 0 0 0 0 0 0 0 0 0 0 0 0 0 127 0" result="hardAlpha"/>
<feOffset dy="4"/>
<feGaussianBlur stdDeviation="2"/>
<feComposite in2="hardAlpha" operator="out"/>
<feColorMatrix type="matrix" values="0 0 0 0 0 0 0 0 0 0 0 0 0 0 0 0 0 0 0.25 0"/>
<feBlend mode="normal" in2="BackgroundImageFix" result="effect1_dropShadow_141_31"/>
<feBlend mode="normal" in="SourceGraphic" in2="effect1_dropShadow_141_31" result="shape"/>
</filter>
</defs>
</svg>
