<svg width="245" height="335" viewBox="0 0 245 335" fill="none" xmlns="http://www.w3.org/2000/svg">
<path d="M116.012 62.6253C137.471 62.1087 154.877 78.5926 155.396 99.9916C155.561 106.834 154.092 118.53 151.321 131.271C160.029 123.261 168.332 116.814 173.835 113.675V113.674L174.72 113.186C193.369 103.194 216.815 110.341 227.347 128.815C238.056 147.601 230.973 170.633 212.206 181.327C206.812 184.4 197.326 188.163 186.306 191.521C198.181 195.156 208.499 199.322 214.211 202.676C232.919 213.66 239.354 237.503 228.344 256.19C217.335 274.872 192.552 281.309 173.831 270.324C164.508 264.853 147.5 249.692 134.19 233.597C127.533 225.547 121.783 217.242 118.379 209.776C117.146 207.07 116.215 204.458 115.663 201.998C115.181 203.498 114.581 205.042 113.878 206.619C110.561 214.059 104.907 222.359 98.3478 230.418C85.2327 246.532 68.422 261.769 59.214 267.322C40.722 278.472 16.9239 272.565 5.70036 254.196C-5.52696 235.82 0.33894 212.828 18.8273 201.679C24.3837 198.329 34.3345 194.065 45.8244 190.243C35.7856 187.14 27.1 183.719 21.7472 180.831L20.8351 180.327C2.07606 169.633 -5.01511 146.601 5.6945 127.815C16.3939 109.048 40.4193 101.97 59.2062 112.674C64.9696 115.958 73.8032 122.875 82.9572 131.413C79.7396 119.466 77.8054 108.561 77.6466 102.009C77.1282 80.6015 94.5618 63.1419 116.012 62.6253Z" fill="#FF7500"/>
<path d="M116.021 142C145.844 142 170.021 198.177 170.021 228C170.021 240.278 165.922 251.597 159.021 260.668V306H173.021C180.315 306 186.726 309.775 190.021 316C193.274 322.147 192.555 333.016 187.021 334C183.151 334.688 155.86 334.414 139.784 334.187C133.244 334.094 128.021 328.76 128.021 322.219V280.66C124.161 281.536 120.145 282 116.021 282C111.539 282 107.185 281.453 103.022 280.424V322.219C103.022 328.76 97.7975 334.094 91.2569 334.187C75.1813 334.414 47.8924 334.688 44.0216 334C38.4875 333.016 37.7681 322.147 41.0216 316C44.3165 309.775 50.7268 306 58.0216 306H72.0216V259.312C65.7251 250.481 62.0206 239.673 62.0206 228C62.0206 198.177 86.1974 142 116.021 142Z" fill="#FF7500"/>
<path d="M108.021 153C106.594 136.969 111.061 95.6234 139.021 60C166.98 24.3766 209.308 13.95 227.021 13" stroke="white" stroke-width="6" stroke-linecap="round" stroke-linejoin="round"/>
<circle cx="222.021" cy="12" r="12" fill="#06D6A0"/>
<path d="M130.021 153C130.378 141.912 136.547 115.031 158.021 95C184.863 69.9615 213.41 61.7885 232.021 60" stroke="white" stroke-width="6" stroke-linecap="round" stroke-linejoin="round"/>
<circle cx="232.021" cy="60" r="12" fill="#06D6A0"/>
<ellipse cx="101.521" cy="177.5" rx="12.5" ry="16.5" fill="white"/>
<ellipse cx="105.521" cy="180" rx="7.5" ry="10" fill="#161820"/>
<ellipse cx="131.521" cy="177.5" rx="12.5" ry="16.5" fill="white"/>
<ellipse cx="135.521" cy="180" rx="7.5" ry="10" fill="#161820"/>
</svg>
