<svg width="32" height="36" viewBox="0 0 32 36" fill="none" xmlns="http://www.w3.org/2000/svg">
<path d="M29.2504 16.5554C26.6384 18.0431 17.1193 20.662 15.6307 18.0517C14.142 15.4415 21.2459 8.59073 23.8578 7.10181C26.4698 5.61411 29.7954 6.52394 31.2841 9.13417C32.7728 11.7444 31.8623 15.0677 29.2504 16.5554Z" fill="#C3C4FF"/>
<path d="M24.0418 28.8672C21.5276 27.3563 14.7296 20.4667 16.2081 17.8974C17.6865 15.3281 26.883 18.0535 29.396 19.5643C31.909 21.0752 32.749 24.3822 31.2706 26.9515C29.7921 29.5208 26.556 30.378 24.0418 28.8672Z" fill="#C3C4FF"/>
<path d="M10.8574 30.484C10.8969 27.4798 13.327 17.9571 16.1674 18.0001C19.0078 18.0419 21.1822 27.6334 21.1427 30.6376C21.1032 33.6418 18.7672 36.0425 15.928 35.9994C13.0876 35.9576 10.8179 33.4869 10.8586 30.484H10.8574Z" fill="#C3C4FF"/>
<path d="M2.55261 19.6866C5.05718 18.1531 14.259 15.3208 15.7792 17.8471C17.2995 20.3735 10.5639 27.3018 8.05931 28.8352C5.55473 30.3687 2.29124 29.5645 0.770994 27.0382C-0.749253 24.5118 0.0480375 21.22 2.55261 19.6866Z" fill="#C3C4FF"/>
<path d="M8.14192 7.10181C10.754 8.5895 17.8583 15.4415 16.3683 18.0517C14.8783 20.662 5.36001 18.0431 2.74789 16.5554C0.136998 15.0677 -0.773492 11.7444 0.715281 9.13417C2.20405 6.52394 5.5298 5.61411 8.14192 7.10181Z" fill="#C3C4FF"/>
<path d="M21.7129 5.30881C21.7853 8.31216 19.5858 17.9271 16.589 17.9996C13.5921 18.0721 10.9314 8.57401 10.859 5.57066C10.7867 2.56731 13.1579 0.07415 16.1547 0.0016172C19.1516 -0.0709156 21.6405 2.30546 21.7129 5.30881Z" fill="#FF7500"/>
</svg>
