<svg width="26" height="26" viewBox="0 0 26 26" fill="none" xmlns="http://www.w3.org/2000/svg">
<path d="M24.1116 14.8082C22.9531 13.7858 22.9324 11.9865 24.0672 10.9384C25.8695 9.27413 24.5838 6.268 22.1357 6.4218C20.5937 6.51843 19.3071 5.26037 19.3682 3.71638C19.4648 1.26533 16.4311 0.0486834 14.8082 1.88845C13.7858 3.04693 11.9865 3.06763 10.9384 1.93282C9.27413 0.130516 6.268 1.41618 6.4218 3.86427C6.51843 5.40628 5.26037 6.69294 3.71638 6.63181C1.26533 6.53519 0.0486833 9.56893 1.88845 11.1918C3.04693 12.2142 3.06763 14.0135 1.93282 15.0616C0.130516 16.7259 1.41618 19.732 3.86427 19.5782C5.40629 19.4816 6.69294 20.7396 6.63181 22.2836C6.53519 24.7347 9.56893 25.9513 11.1918 24.1116C12.2142 22.9531 14.0135 22.9324 15.0616 24.0672C16.7259 25.8695 19.732 24.5838 19.5782 22.1357C19.4816 20.5937 20.7396 19.3071 22.2836 19.3682C24.7347 19.4648 25.9513 16.4311 24.1116 14.8082ZM12.999 17.4742C10.5282 17.4742 8.52482 15.4708 8.52482 13C8.52482 10.5292 10.5282 8.5258 12.999 8.5258C15.4698 8.5258 17.4732 10.5292 17.4732 13C17.4732 15.4708 15.4698 17.4742 12.999 17.4742Z" stroke="white" stroke-width="2" stroke-miterlimit="10"/>
</svg>
